# xmcd
#
# Track frame offsets: 
#        183
#        17353
#        36988
#        54653
#        70413
#        89553
#        109345
#        129945
#        145545
#        164633
#        187945
#        201520
#        228295
#
# Disc length: 3301 seconds
#
# Revision: 1
# Processed by: cddbd v1.5.2PL0 Copyright (c) Steve Scherf et al.
# Submitted via: ExactAudioCopy v0.99pb4
#
DISCID=b50ce30d
DTITLE=Spear of Destiny - Live At The National - London '87
DYEAR=2006
DGENRE=Alternative Rock
TTITLE0=Land of Shame
TTITLE1=Strangers In Our Town
TTITLE2=Pumpkin Town
TTITLE3=Embassy Song
TTITLE4=Never Take Me Alive
TTITLE5=Outlands
TTITLE6=Was That You?
TTITLE7=Miami Vice
TTITLE8=Rocket Ship
TTITLE9=Once In Her Lifetime
TTITLE10=All You Young Men
TTITLE11=Mickey
TTITLE12=Liberator
EXTD=Live from the BBC - All songs written by Kirk Brandon
EXTT0=
EXTT1=
EXTT2=
EXTT3=
EXTT4=
EXTT5=
EXTT6=
EXTT7=
EXTT8=
EXTT9=
EXTT10=
EXTT11=
EXTT12=
PLAYORDER=
